<!DOCTYPE svg PUBLIC "-//W3C//DTD SVG 1.1//EN" "http://www.w3.org/Graphics/SVG/1.1/DTD/svg11.dtd">
<!-- Uploaded to: SVG Repo, www.svgrepo.com, Transformed by: SVG Repo Mixer Tools -->
<svg width="800px" height="800px" viewBox="-2.4 -2.4 28.80 28.80" version="1.1" xmlns="http://www.w3.org/2000/svg" xmlns:xlink="http://www.w3.org/1999/xlink" fill="#27005D" transform="rotate(0)">
<g id="SVGRepo_bgCarrier" stroke-width="0">
<path transform="translate(-2.4, -2.4), scale(0.8999999999999999)" d="M16,29.74376405775547C18.104227788414683,29.94469080615879,20.54372293977831,30.189232913119312,22.201780418691463,28.878129736256163C23.912411935686144,27.52545382188189,23.470048755234803,24.73273057436184,24.653564915427864,22.900987739020135C25.691792299887382,21.294110167843534,28.504134082649784,20.79573444685317,28.65611462161647,18.888675573517723C28.81713861228088,16.868139047563208,25.44858947110109,15.886007864777039,25.37403970119736,13.860436609527513C25.273600668829154,11.131435337855686,29.163402125233887,8.829458472329534,28.19195921662689,6.277236966400498C27.37177482007792,4.122409094218696,23.979929060451823,3.9090734521019828,21.69064689301799,4.18324996631026C19.44187167469133,4.452575154515388,18.24081563222838,8.066456455159656,16,7.73741034604609C13.17313270780351,7.322307171068392,12.281869066088948,2.0594398170195563,9.443274852531532,2.384819939837813C7.141526373655956,2.648662936197153,7.526474382535911,6.534140621971384,6.94114212508487,8.775801911087376C6.508818125871452,10.431483724375434,6.40627711957481,12.111401912537707,6.456890928959304,13.821847629141514C6.499339562143113,15.2563589549612,7.542692795522739,16.608238750470335,7.214251952005769,18.00528965959068C6.546448495947514,20.845848146195863,2.7321377295430573,23.09085378293044,3.6246533803637124,25.86900960735575C4.34492827101322,28.111027302849728,8.096216793670507,27.042182983718895,10.343512493406639,27.74581733688521C12.276043332670016,28.350897962108988,13.984126593099056,29.55127401885788,16,29.74376405775547" fill="#9400FF" strokewidth="0"/>
</g>
<g id="SVGRepo_tracerCarrier" stroke-linecap="round" stroke-linejoin="round"/>
<g id="SVGRepo_iconCarrier"> <title>Close</title> <g id="Page-1" stroke="none" stroke-width="1" fill="none" fill-rule="evenodd"> <g id="Close"> <rect id="Rectangle" fill-rule="nonzero" x="0" y="0" width="24" height="24"> </rect> <line x1="16.9999" y1="7" x2="7.00001" y2="16.9999" id="Path" stroke="#27005D" stroke-width="2" stroke-linecap="round"> </line> <line x1="7.00006" y1="7" x2="17" y2="16.9999" id="Path" stroke="#27005D" stroke-width="2" stroke-linecap="round"> </line> </g> </g> </g>
</svg>