<!DOCTYPE svg PUBLIC "-//W3C//DTD SVG 1.1//EN" "http://www.w3.org/Graphics/SVG/1.1/DTD/svg11.dtd">
<!-- Uploaded to: SVG Repo, www.svgrepo.com, Transformed by: SVG Repo Mixer Tools -->
<svg fill="#27005D" width="800px" height="800px" viewBox="-2.4 -2.4 28.80 28.80" xmlns="http://www.w3.org/2000/svg">
<g id="SVGRepo_bgCarrier" stroke-width="0">
<path transform="translate(-2.4, -2.4), scale(0.8999999999999999)" d="M16,25.878941414191534C17.589246093533774,26.285905931715533,19.23526679097782,26.339345323062197,20.855602822452962,26.082763154080606C22.782958437051157,25.777564063036362,25.58446872877534,26.04334743472282,26.335517039249112,24.24229979914182C27.203469406884384,22.160910975378496,23.59766848519228,20.039891976361332,24.27278400004786,17.888208963050165C25.039268751355266,15.44532003062358,29.331402344801564,15.315337835914768,29.9183860909163,12.823219200705728C30.402432499958884,10.76813490873752,28.04277983422885,9.096657112605262,26.733670535697307,7.440183382750261C25.42063557421296,5.778742338431231,24.23248422667464,3.743652860734843,22.220576069914642,3.0828406918163935C20.20782183737363,2.4217506289145403,17.98762962041907,3.181527546203431,16,3.91470430791378C14.31626291411264,4.5357842573775216,13.39137324638681,6.522074403156686,11.656083371516335,6.979764176027299C9.35677711384151,7.586215567276107,6.092667779221915,5.057670033255121,4.611964802418955,6.918344978272943C3.1303380298572563,8.780180779755243,6.911259957580448,11.488996179130508,6.248995543343577,13.7743968640189C5.523463657689623,16.2781265416773,1.1604143270013714,16.82556217927252,0.9873336489194351,19.42654312783072C0.8371597493822432,21.683290998219903,3.443150693112097,23.504260822666907,5.546134960553228,24.336679179926897C7.643029944029914,25.166687233014358,9.979458948957717,23.539831339051528,12.21050011452176,23.868977594503978C13.642997921609565,24.080314479015293,14.597258198004088,25.519735786452244,16,25.878941414191534" fill="#9400FF" strokewidth="0"/>
</g>
<g id="SVGRepo_tracerCarrier" stroke-linecap="round" stroke-linejoin="round"/>
<g id="SVGRepo_iconCarrier">
<path d="M20.992,9.98A8.991,8.991,0,0,0,3.01,9.932a13.95,13.95,0,0,0,8.574,12.979A1,1,0,0,0,12,23a1.012,1.012,0,0,0,.419-.09A13.948,13.948,0,0,0,20.992,9.98ZM12,20.9A11.713,11.713,0,0,1,5.008,10a6.992,6.992,0,1,1,13.984,0c0,.021,0,.045,0,.065A11.7,11.7,0,0,1,12,20.9ZM12,6a4,4,0,1,0,4,4A4,4,0,0,0,12,6Zm0,6a2,2,0,1,1,2-2A2,2,0,0,1,12,12Z"/>
</g>
</svg>