<!DOCTYPE svg PUBLIC "-//W3C//DTD SVG 1.1//EN" "http://www.w3.org/Graphics/SVG/1.1/DTD/svg11.dtd">
<!-- Uploaded to: SVG Repo, www.svgrepo.com, Transformed by: SVG Repo Mixer Tools -->
<svg width="800px" height="800px" viewBox="-2.4 -2.4 28.80 28.80" xmlns="http://www.w3.org/2000/svg" fill="#27005D">
<g id="SVGRepo_bgCarrier" stroke-width="0">
<path transform="translate(-2.4, -2.4), scale(0.8999999999999999)" d="M16,29.956725059284103C18.12871786051981,30.494285724052066,20.00563812627366,28.34093920646898,21.86049545613476,27.166241167029757C23.60005253188866,26.064563828571732,25.31995775972547,24.93369525852054,26.54484327605372,23.278579779236182C27.791372810457982,21.594218016218388,28.397914305393776,19.592340797687967,28.959640745276968,17.573585281139547C29.593388545982354,15.295996444408875,31.47736079524433,12.557310176029132,30.0531313313246,10.670350288219641C28.440312942160393,8.533529162290527,24.27360961922249,10.693655647188322,22.356460304927474,8.825039531625432C20.282334550217136,6.803420880403689,22.46852612401063,1.7392559831208378,19.78132175125483,0.6585745886467542C17.307729099988617,-0.3362010908040092,15.732727238906664,4.02695973827594,13.337548540142858,5.19800980458953C11.561329409024323,6.066438340780744,8.980609659465623,5.114488586683191,7.659283919466951,6.585277767034903C6.307031039693215,8.090492449882642,7.7661973578418,10.73721362143556,6.775985271757145,12.501792641170482C5.527075574384371,14.727376312080235,1.6662307825206835,15.239247205985354,1.3799433983356746,17.775196267395774C1.1198768443471425,20.078879803325737,3.641284249891945,21.911512590189126,5.568183834082783,23.20056279815754C7.281691661842215,24.346858972514934,9.780798596991572,23.43207260666081,11.511171537496757,24.552748064546222C13.505651441149208,25.8444723090414,13.69608851966126,29.37492311647755,16,29.956725059284103" fill="#9400FF" strokewidth="0"/>
</g>
<g id="SVGRepo_tracerCarrier" stroke-linecap="round" stroke-linejoin="round"/>
<g id="SVGRepo_iconCarrier"> <title/> <g id="Complete"> <g id="mail"> <g> <polyline fill="none" points="4 8.2 12 14.1 20 8.2" stroke="#27005D" stroke-linecap="round" stroke-linejoin="round" stroke-width="2"/> <rect fill="none" height="14" rx="2" ry="2" stroke="#27005D" stroke-linecap="round" stroke-linejoin="round" stroke-width="2" width="18" x="3" y="6.5"/> </g> </g> </g> </g>
</svg>