<!DOCTYPE svg PUBLIC "-//W3C//DTD SVG 1.1//EN" "http://www.w3.org/Graphics/SVG/1.1/DTD/svg11.dtd">
<!-- Uploaded to: SVG Repo, www.svgrepo.com, Transformed by: SVG Repo Mixer Tools -->
<svg width="800px" height="800px" viewBox="-2.1 -2.1 25.20 25.20" version="1.1" xmlns="http://www.w3.org/2000/svg" xmlns:xlink="http://www.w3.org/1999/xlink" fill="#27005D" transform="matrix(1, 0, 0, -1, 0, 0)">
<g id="SVGRepo_bgCarrier" stroke-width="0">
<path transform="translate(-2.1, -2.1), scale(0.7875)" d="M16,24.82793266973213C18.56006593997697,25.13592295454956,19.462234108306824,29.793739255730255,22.028201757344807,29.53956282751046C24.124624348827055,29.33189800892164,23.508564916866224,25.5915277793096,24.832695267042645,23.952994540495588C26.069510051363775,22.422509166380614,28.85977046235434,22.247204744072526,29.440626473617876,20.36712427098788C30.024338436682203,18.47779982158445,27.65519342318265,16.750963058405414,27.668703673564536,14.773569823848211C27.684448541051598,12.469112573399379,30.86777988417132,10.064060080935405,29.523811067188895,8.192024039888857C28.09587197401953,6.203024434351629,24.75222758994029,7.513892676698362,22.312053165988225,7.3122041412809775C20.81797766246227,7.188713829624855,19.09509515411342,8.084543230555933,17.864473675075597,7.228341009909414C15.557296162319847,5.623127267506926,15.539465670193046,0.8701750698907875,12.737396556681867,0.6506576052774129C10.41577011035986,0.4687785970764492,10.829769601249625,4.952416982737267,9.129857963028384,6.544060709243263C7.6974129407164105,7.885272853489353,5.267476701232298,7.632299546506253,3.841291852219973,8.980166577881096C2.3198411469627302,10.418068016042088,0.6546345508874357,12.316441873462677,0.8134027738247216,14.403824312254992C0.9803540823996478,16.598792695760505,3.289349798639333,17.96000135256405,4.655589077429276,19.68602255090294C5.6704373828897285,20.968118385444054,6.9335364131271575,21.97971736132136,7.870738198886235,23.31962020287877C8.943154866977125,24.85283766228073,8.745095861771423,27.821519930459775,10.584749667438917,28.162851386829203C12.692123328397638,28.55385588919459,13.872003942308059,24.571922814023182,16,24.82793266973213" fill="#9400FF" strokewidth="0"/>
</g>
<g id="SVGRepo_tracerCarrier" stroke-linecap="round" stroke-linejoin="round"/>
<g id="SVGRepo_iconCarrier"> <title>menu_navigation_grid [#27005D]</title> <desc>Created with Sketch.</desc> <defs> </defs> <g id="Page-1" stroke="none" stroke-width="1" fill="none" fill-rule="evenodd"> <g id="Dribbble-Light-Preview" transform="translate(-99.000000, -200.000000)" fill="#27005D"> <g id="icons" transform="translate(56.000000, 160.000000)"> <path d="M60.85,51 L57.7,51 C55.96015,51 54.55,52.343 54.55,54 L54.55,57 C54.55,58.657 55.96015,60 57.7,60 L60.85,60 C62.58985,60 64,58.657 64,57 L64,54 C64,52.343 62.58985,51 60.85,51 M49.3,51 L46.15,51 C44.41015,51 43,52.343 43,54 L43,57 C43,58.657 44.41015,60 46.15,60 L49.3,60 C51.03985,60 52.45,58.657 52.45,57 L52.45,54 C52.45,52.343 51.03985,51 49.3,51 M60.85,40 L57.7,40 C55.96015,40 54.55,41.343 54.55,43 L54.55,46 C54.55,47.657 55.96015,49 57.7,49 L60.85,49 C62.58985,49 64,47.657 64,46 L64,43 C64,41.343 62.58985,40 60.85,40 M52.45,43 L52.45,46 C52.45,47.657 51.03985,49 49.3,49 L46.15,49 C44.41015,49 43,47.657 43,46 L43,43 C43,41.343 44.41015,40 46.15,40 L49.3,40 C51.03985,40 52.45,41.343 52.45,43" id="menu_navigation_grid-[#27005D]"> </path> </g> </g> </g> </g>
</svg>