<!DOCTYPE svg PUBLIC "-//W3C//DTD SVG 1.1//EN" "http://www.w3.org/Graphics/SVG/1.1/DTD/svg11.dtd">
<!-- Uploaded to: SVG Repo, www.svgrepo.com, Transformed by: SVG Repo Mixer Tools -->
<svg fill="#27005D" width="800px" height="800px" viewBox="-2.4 -2.4 28.80 28.80" xmlns="http://www.w3.org/2000/svg">
<g id="SVGRepo_bgCarrier" stroke-width="0">
<path transform="translate(-2.4, -2.4), scale(0.8999999999999999)" d="M16,26.27358789873474C18.015652368769143,25.961617228596545,20.053548126387113,28.093681098488457,21.939225413442813,27.31624856776094C23.796500700264527,26.550525696512913,23.960369335048362,23.91247026924806,25.318167502731562,22.431866628016838C26.9409403042319,20.662322835737253,30.39941602068513,20.167004310555125,30.68201643890805,17.78271955371405C30.964956812492996,15.395566611493855,27.70021901762832,14.11054610283017,26.554970197976715,11.997027812007609C25.59375729302415,10.22314163012973,26.06588146166734,7.678702440913042,24.51058015922122,6.393540858265153C22.95045703080474,5.104394950852939,20.618462469027712,5.63938031421301,18.605658237329713,5.428428966086678C16.834181712172885,5.242769896381355,15.124050811831278,5.279405178758335,13.343758711878515,5.223205461754292C10.958213926942108,5.147899312938906,8.47333374637272,4.07556921228154,6.289978399199329,5.039651348282435C4.035410431077262,6.035178120999612,2.334726746634236,8.181669348902481,1.4415928554846467,10.478724448493857C0.5464680191798758,12.780900068946696,0.8475755377519067,15.359239261844952,1.3361138010347258,17.780518144023887C1.8030258751275647,20.094613947367105,2.891606713801525,22.17999164435712,4.199130707372879,24.14555194061353C5.522476442683567,26.134896570873263,6.659186557189477,28.893251166368607,9.010557070527824,29.31727086179699C11.548226644105515,29.774885633089934,13.451741111332094,26.667992234274397,16,26.27358789873474" fill="#9400FF" strokewidth="0"/>
</g>
<g id="SVGRepo_tracerCarrier" stroke-linecap="round" stroke-linejoin="round"/>
<g id="SVGRepo_iconCarrier">
<path d="M1.277,8.858C2.606,14.138,9.863,21.4,15.142,22.723a8.938,8.938,0,0,0,2.18.274,8.54,8.54,0,0,0,4.006-1,3.11,3.11,0,0,0,.764-4.951h0L20.006,14.96a3.111,3.111,0,0,0-3.444-.651,4.859,4.859,0,0,0-1.471.987c-.178.177-.506.205-.977.077A9.981,9.981,0,0,1,8.626,9.886c-.126-.471-.1-.8.078-.977a4.864,4.864,0,0,0,.988-1.473,3.112,3.112,0,0,0-.651-3.442L6.955,1.909A3.065,3.065,0,0,0,4.3,1.035,3.1,3.1,0,0,0,2,2.672,8.58,8.58,0,0,0,1.277,8.858ZM3.773,3.6A1.115,1.115,0,0,1,4.6,3.013,1.044,1.044,0,0,1,4.767,3a1.088,1.088,0,0,1,.774.323L7.626,5.408a1.1,1.1,0,0,1,.239,1.213A2.9,2.9,0,0,1,7.29,7.5,2.817,2.817,0,0,0,6.7,10.4c.722,2.7,4.205,6.179,6.9,6.9a2.821,2.821,0,0,0,2.907-.6,2.906,2.906,0,0,1,.874-.576,1.1,1.1,0,0,1,1.214.239l2.085,2.085a1.089,1.089,0,0,1,.31.942,1.114,1.114,0,0,1-.591.826,6.517,6.517,0,0,1-4.766.556C11.089,19.641,4.36,12.912,3.216,8.37A6.53,6.53,0,0,1,3.773,3.6Z"/>
</g>
</svg>