<!DOCTYPE svg PUBLIC "-//W3C//DTD SVG 1.1//EN" "http://www.w3.org/Graphics/SVG/1.1/DTD/svg11.dtd">
<!-- Uploaded to: SVG Repo, www.svgrepo.com, Transformed by: SVG Repo Mixer Tools -->
<svg fill="#27005D" version="1.1" id="Capa_1" xmlns="http://www.w3.org/2000/svg" xmlns:xlink="http://www.w3.org/1999/xlink" width="800px" height="800px" viewBox="-93.6 -93.6 1123.20 1123.20" xml:space="preserve">
<g id="SVGRepo_bgCarrier" stroke-width="0">
<path transform="translate(-93.6, -93.6), scale(35.1)" d="M16,28.115285269916058C17.790132908487987,28.91154038174921,19.88212513977445,29.499906630459627,21.756278077217647,28.92881224224949C23.622010527719144,28.36028375607559,25.359629324689845,26.87485559190021,26.05313261284752,25.051881262470417C26.77098670698472,23.164897295365336,24.869691080123125,21.004738134841425,25.50039178782844,19.086864413794814C26.134417869758604,17.158878689129743,29.73539698959779,16.59691080196058,29.49636921584463,14.581474434705434C29.2554327030652,12.549943945881296,25.649727994832237,12.78863057757637,24.54892466670794,11.064276042394342C23.518042408078802,9.449449440321123,24.621095945007347,7.109385366821373,23.666057690932817,5.448576792911085C22.65306396191678,3.686983827090575,21.091969300583088,1.3100644887088853,19.07315700979061,1.5419330005843506C16.682560087388467,1.816502435999202,16.364499872729574,6.149571830909234,13.993364779324612,6.559523522070615C11.478388206468027,6.994344339383583,9.529321126698525,3.2136385534985905,7.010798401471458,3.627425440314738C4.901446082087588,3.9739866687259595,3.184875487306646,6.286863175079696,2.826412105347039,8.394225482828908C2.4393420759718327,10.669762766178554,4.126654340386985,12.762012705634024,5.101071413368922,14.854476445686913C5.758372872228375,16.265965947547034,7.695169717794946,17.162413717615713,7.634095415421378,18.718247176334764C7.527455611887557,21.434836116709576,3.0098224091020995,24.05066995433139,4.655114373239046,26.214980900431986C6.215873119581751,28.26809202755264,9.60321289736639,24.228429228490057,12.14677545164741,24.654484033710364C13.868275649829501,24.942840783729636,14.405168889998679,27.405900833806403,16,28.115285269916058" fill="#9400FF" strokewidth="0"/>
</g>
<g id="SVGRepo_tracerCarrier" stroke-linecap="round" stroke-linejoin="round"/>
<g id="SVGRepo_iconCarrier"> <g> <g> <g> <path d="M76.416,653.994c-0.738-0.698-1.469-1.405-2.191-2.129c-20.776-20.774-32.218-48.399-32.218-77.781V91.273 c0-10.925,2.949-21.168,8.072-30H30c-16.569,0-30,13.431-30,30v482.81C0,617.066,33.898,652.119,76.416,653.994z"/> <path d="M466.439,167.209c-37.812,0-62.039,32.671-62.039,86.268c0,53.963,24.229,88.47,62.039,88.47 c37.809,0,62.04-34.507,62.04-88.47C528.479,199.88,504.25,167.209,466.439,167.209z"/> <path d="M663.203,326.476c16.695,3.021,33.004,7.845,48.791,14.442c27.19-2.972,42.25-16.047,42.25-39.72 c0-24.962-19.09-36.71-55.064-36.71h-35.977V326.476L663.203,326.476z"/> <path d="M741.396,198.779c0-22.026-15.785-31.203-46.988-31.203h-31.203v66.444h30.469 C727.078,234.02,741.396,221.172,741.396,198.779z"/> <path d="M152.007,654.083h251.63c-0.354-0.809-0.718-1.612-1.063-2.43c-11.71-27.686-17.939-56.992-18.56-87.18H185.73 c-8.284,0-15-6.717-15-15c0-8.285,6.716-15,15-15h199.533c2.204-21.082,7.203-41.642,14.963-61.41H185.73 c-8.284,0-15-6.715-15-15s6.716-15,15-15H414.5c10.515-18.622,23.498-35.718,38.81-51.03c4.551-4.551,9.269-8.885,14.128-13.022 c-0.334,0.003-0.665,0.012-1,0.012c-62.406,0-105.725-47.724-105.725-125.547c0-77.458,43.317-123.344,105.725-123.344 c62.772,0,106.09,45.887,106.09,123.344c0,31.861-7.265,58.673-20.148,79.234c22.021-6.643,44.877-10.018,68.24-10.029V134.537 h76.723c49.56,0,85.9,15.051,85.9,59.102c0,22.76-13.215,44.786-41.115,52.128v1.468c34.506,5.874,53.596,24.596,53.596,56.899 c0,30.077-15.364,50.103-39.809,60.885c11.469,7.987,22.254,16.999,32.271,27.015c19.976,19.975,35.996,42.984,47.722,68.465 c1.033,2.248,2.047,4.508,3.014,6.793c12.355,29.213,18.621,60.227,18.621,92.182c0,31.953-6.266,62.967-18.621,92.18 c-0.25,0.588-0.514,1.168-0.768,1.754c39.344-5.031,69.76-38.612,69.76-79.324V91.273c0-16.569-13.43-30-30-30h-72.004H102.007 c-16.568,0-30,13.431-30,30v482.811C72.007,618.267,107.825,654.083,152.007,654.083z M199.561,316.617 c9.545,17.621,22.76,25.33,37.444,25.33c22.393,0,33.773-12.114,33.773-46.254V134.537h42.583v164.826 c0,43.685-21.292,79.66-71.583,79.66c-33.406,0-56.533-13.95-71.584-40.747L199.561,316.617z"/> <path d="M788.188,726.914c-11.772,11.773-24.606,22.164-38.37,31.125l102.289,102.289c9.596,9.597,22.172,14.396,34.747,14.396 c12.578,0,25.152-4.799,34.75-14.396c19.189-19.188,19.189-50.305,0-69.496L819.312,688.541 C810.354,702.306,799.961,715.14,788.188,726.914z"/> <path d="M432.832,473.064c-8.789,19.082-14.756,39.729-17.369,61.41c-0.987,8.195-1.509,16.535-1.509,25 c0,1.672,0.024,3.338,0.063,5c0.765,32.236,8.908,62.646,22.806,89.608c2.644,5.132,5.504,10.132,8.554,15 c3.23,5.156,6.677,10.162,10.335,15c37.751,49.923,97.623,82.187,165.037,82.187c39.293,0,76.025-10.961,107.311-29.988 c22.388-13.617,41.978-31.373,57.726-52.197c3.66-4.838,7.104-9.844,10.336-15c0.479-0.766,0.965-1.526,1.436-2.301 c2.519-4.139,4.892-8.377,7.117-12.699c4.596-8.911,8.559-18.2,11.836-27.807c7.15-20.957,11.035-43.426,11.035-66.803 c0-81.051-46.635-151.197-114.527-185.105c-27.776-13.873-59.106-21.69-92.268-21.69c-0.043,0-0.086,0.002-0.129,0.002 c-70.984,0.043-133.594,35.854-170.801,90.383C443.36,452.53,437.669,462.561,432.832,473.064z"/> </g> </g> </g> </g>
</svg>