<!DOCTYPE svg PUBLIC "-//W3C//DTD SVG 1.1//EN" "http://www.w3.org/Graphics/SVG/1.1/DTD/svg11.dtd">
<!-- Uploaded to: SVG Repo, www.svgrepo.com, Transformed by: SVG Repo Mixer Tools -->
<svg version="1.1" id="_x32_" xmlns="http://www.w3.org/2000/svg" xmlns:xlink="http://www.w3.org/1999/xlink" viewBox="-51.2 -51.2 614.40 614.40" xml:space="preserve" width="800px" height="800px" fill="#27005D">
<g id="SVGRepo_bgCarrier" stroke-width="0">
<path transform="translate(-51.2, -51.2), scale(19.2)" d="M16,31.134109051015816C18.61961940894954,31.35301928137085,18.34600692243508,26.125954963208198,20.690926856887728,24.937814383265817C23.09142813936331,23.721511453682545,27.42285853516571,27.12557184431346,28.64402912208995,24.727543149466197C29.967643033106974,22.12834515575073,24.340011143185237,19.950866415576655,24.70420770185716,17.056882161537974C25.071028621868724,14.142044167360947,30.466310691762896,13.464619227161048,30.43111157393557,10.527001290505524C30.401891717917668,8.088395483230325,26.956978909203965,6.846017954940479,24.575558601804318,6.320195358652915C22.358083976965837,5.830572312770874,20.14791565688361,8.591719746134608,18.024192651654918,7.787527582579296C15.430669574378747,6.80543578924735,15.25124020806902,1.534908560712471,12.48575245347746,1.7421372317455752C9.984188909243201,1.9295890430637885,10.514801236848008,6.244363369830133,9.30332444165805,8.44101589631779C8.515114417122634,9.870200135481971,7.540016920116621,11.103949641879774,6.5904887141451045,12.43144307625824C5.32133139724659,14.205795849330798,3.1300962116394966,15.462062642054718,2.745369066042395,17.609403574880247C2.3543983814240717,19.79159259955319,2.7460643026662064,22.602995090646736,4.533029610870692,23.915078168392814C6.489361118118268,25.351518737963897,9.649332861650425,22.893704272954277,11.70326001302695,24.186754052737555C14.041523994599807,25.658808075891024,13.246551550481474,30.90401530827762,16,31.134109051015816" fill="#9400FF" strokewidth="0"/>
</g>
<g id="SVGRepo_tracerCarrier" stroke-linecap="round" stroke-linejoin="round"/>
<g id="SVGRepo_iconCarrier"> <style type="text/css"> .st0{fill:#27005D;} </style> <g> <path class="st0" d="M127.71,144.416c0-5.284-3.687-9.69-8.616-10.866V79.872l53.285,34.484v43.97c0,0,0.28-0.131,0.746-0.327 c0.822,22.806,10.4,43.446,25.477,58.504c15.776,15.786,37.63,25.569,61.705,25.56c24.076,0.01,45.939-9.773,61.706-25.56 c15.077-15.058,24.664-35.698,25.476-58.504c0.476,0.196,0.746,0.327,0.746,0.327v-43.97l67.942-43.959L260.308,0l-155.87,70.396 v63.154c-4.938,1.176-8.617,5.582-8.617,10.866v3.201h31.889V144.416z M189.081,152.845c17.522-4.21,45.967-6.656,71.227,11.025 c25.261-17.681,53.715-15.235,71.228-11.025c0.019,0.654,0.047,1.307,0.047,1.961c0,19.706-7.963,37.471-20.874,50.401 c-12.92,12.91-30.694,20.873-50.401,20.873c-19.707,0-37.472-7.963-50.4-20.873c-12.911-12.93-20.864-30.695-20.874-50.401 C189.034,154.152,189.071,153.499,189.081,152.845z"/> <path class="st0" d="M107.014,183.858h9.503c6.18,0,11.193-5.014,11.193-11.193v-18.381H95.821v18.381 C95.821,178.844,100.835,183.858,107.014,183.858z"/> <path class="st0" d="M368.672,343.704c0-0.886,0-1.736,0-2.651c0-33.738-16.589-76.38-56.852-94.137c0,0-2.502,1.998-7.02,4.612 l-44.492,75.288l-44.5-75.288c-4.509-2.615-7.011-4.612-7.011-4.612c-40.263,17.756-56.842,60.399-56.842,94.137 c0,0.915,0,1.765,0,2.651H87.551v44.586h336.899v-44.586H368.672z"/> <rect x="122.231" y="403.3" class="st0" width="267.538" height="108.7"/> </g> </g>
</svg>