<!DOCTYPE svg PUBLIC "-//W3C//DTD SVG 1.1//EN" "http://www.w3.org/Graphics/SVG/1.1/DTD/svg11.dtd">
<!-- Uploaded to: SVG Repo, www.svgrepo.com, Transformed by: SVG Repo Mixer Tools -->
<svg width="800px" height="800px" viewBox="-2.4 -2.4 28.80 28.80" fill="none" xmlns="http://www.w3.org/2000/svg">
<g id="SVGRepo_bgCarrier" stroke-width="0">
<path transform="translate(-2.4, -2.4), scale(0.8999999999999999)" d="M16,27.634872291702777C18.831484216125475,27.582185153751198,21.932339990772853,28.97976133030928,24.284769074556245,27.40300636949791C26.64980087417723,25.81780422749259,26.871117094667223,22.525182123387054,27.69114844115144,19.79868440011274C28.490334246996788,17.141495392091784,29.708890363840357,14.459699966518725,28.98314372038119,11.78152088622558C28.240332471230992,9.040369320441721,26.276550842079622,6.638430529183858,23.765422146616697,5.311813352570331C21.416345001277993,4.07080722818207,18.64068159859656,5.214239729019803,16,4.922588686924428C12.862152760917645,4.576028004371544,9.496372412310498,1.6808640058977513,6.879604925641029,3.4468531120979637C4.283796551259275,5.1986974522216,5.3588443899024645,9.299204834918358,4.920306145142325,12.399989238326043C4.570111470886811,14.876120333076642,4.165914977676881,17.244421392673416,4.579429252060645,19.710768378226867C5.060640464933198,22.580884110147867,5.097150607455385,26.0565659071164,7.488153858148779,27.715551139476325C9.877851570876501,29.37363053107476,13.091915705079858,27.688984773611978,16,27.634872291702777" fill="#9400FF" strokewidth="0"/>
</g>
<g id="SVGRepo_tracerCarrier" stroke-linecap="round" stroke-linejoin="round"/>
<g id="SVGRepo_iconCarrier"> <path d="M21 10L12 5L3 10L6 11.6667M21 10L18 11.6667M21 10V10C21.6129 10.3064 22 10.9328 22 11.618V16.9998M6 11.6667L12 15L18 11.6667M6 11.6667V17.6667L12 21L18 17.6667L18 11.6667" stroke="#27005D" stroke-width="2" stroke-linecap="round" stroke-linejoin="round"/> </g>
</svg>